<svg width="6" height="10" viewBox="0 0 6 10" fill="none" xmlns="http://www.w3.org/2000/svg">
<path d="M0.776484 10C0.99279 10 1.17027 9.92235 1.31448 9.77815L5.5685 5.62396C5.75707 5.43539 5.85136 5.24126 5.85136 5.00277C5.85136 4.76428 5.76262 4.56461 5.5685 4.38159L1.31448 0.221852C1.16473 0.0776484 0.987243 0 0.776484 0C0.349418 0 0 0.343871 0 0.770937C0 0.981697 0.088741 1.18136 0.244038 1.33666L4.01553 5.00277L0.244038 8.66334C0.088741 8.81863 0 9.0183 0 9.22906C0 9.65613 0.349418 10 0.776484 10Z" fill="#007AFF"/>
</svg>
